<svg width="14" height="18" viewBox="0 0 14 18" fill="none" xmlns="http://www.w3.org/2000/svg">
<path d="M12 0H2C0.9 0 0.0100002 0.9 0.0100002 2L0 18L7 15L14 18V2C14 0.9 13.1 0 12 0ZM12 15L7 12.82L2 15V2H12V15Z" fill="black"/>
<path d="M2.36265 2.4053C2.24214 2.46481 2.05176 2.60137 1.91011 2.57589C1.76994 2.55068 1.89673 2.27751 1.92195 2.21338C1.96785 2.09669 2.03551 1.99794 2.12335 1.91011C2.19299 1.84046 2.16646 1.92796 2.13993 1.97882C2.06444 2.12352 1.91282 2.2667 1.78927 2.37094C1.77754 2.38084 1.65902 2.48667 1.66251 2.46572C1.68596 2.32502 1.87038 2.16269 1.96223 2.06411C2.06663 1.95207 2.19519 1.86663 2.33659 1.80822C2.4372 1.76667 2.44293 1.84771 2.44676 1.93972C2.45546 2.14842 2.39457 2.33486 2.30816 2.52258C2.24154 2.66729 2.02841 3.09511 2.09965 2.95262C2.21358 2.72477 2.34685 2.53198 2.51192 2.33659C2.75519 2.04864 3.01337 1.74053 3.31276 1.5085C3.44002 1.40987 3.38659 1.62468 3.372 1.7016C3.30213 2.06997 3.05637 2.43383 2.88628 2.7607C2.76061 3.00221 2.6193 3.22949 2.47875 3.46203C2.45696 3.49809 2.41478 3.61315 2.41478 3.57102C2.41478 3.47613 2.48762 3.35354 2.52851 3.27367C2.71806 2.90337 2.98443 2.57363 3.23694 2.24537C3.30803 2.15296 3.99644 1.24088 4.01291 1.25735C4.06088 1.30532 3.94062 1.54291 3.92287 1.58313C3.82428 1.80661 3.71188 2.0259 3.59353 2.23945C3.26026 2.84079 2.8933 3.42506 2.54272 4.01646C2.46865 4.14142 2.39664 4.26913 2.33896 4.40267C2.31696 4.45358 2.31063 4.60661 2.28209 4.55904C2.25554 4.51479 2.33446 4.38178 2.35081 4.34817C2.45331 4.13738 2.56823 3.93364 2.69555 3.73688C2.94331 3.35398 3.21751 2.99169 3.49994 2.63394C3.58771 2.52278 3.67429 2.41178 3.75465 2.29513C3.7898 2.2441 3.84153 2.18398 3.8127 2.2892C3.72445 2.61131 3.4576 2.93146 3.27959 3.20614C2.94413 3.72381 2.57531 4.21965 2.25011 4.74385C2.17419 4.86624 2.09297 4.98741 2.02739 5.11584C2.01974 5.13082 1.97618 5.24174 1.99303 5.14546C2.06677 4.72411 2.35848 4.3233 2.5522 3.95012C2.80009 3.47258 3.05674 3.0041 3.27012 2.50955C3.32757 2.37638 3.37748 2.23752 3.44545 2.10913C3.46215 2.07759 3.50325 1.9941 3.46914 2.08425C3.13286 2.97298 2.65338 3.81276 2.22997 4.6633C2.16685 4.79009 2.11775 4.92899 2.04753 5.05187C2.01407 5.11042 2.00052 4.94564 2.00014 4.94288C1.95862 4.64489 1.97146 4.33042 1.98356 4.03068C1.9968 3.7024 2.0583 3.38036 2.09492 3.0545C2.10682 2.94856 2.13034 2.84489 2.14467 2.73938C2.14515 2.73588 2.16307 2.62365 2.16955 2.68844C2.23063 3.2992 2.00002 3.91807 1.93617 4.52113C1.91767 4.69582 1.91484 4.8694 1.91484 5.04476C1.91484 5.18026 1.92154 4.94108 1.92669 4.91089C1.94778 4.78739 1.97556 4.66417 2.00014 4.54127C2.01681 4.45791 2.02147 4.7483 2.02147 4.77702C2.02147 5.40147 2.017 6.02258 2.07478 6.64526C2.10662 6.98847 2.08971 7.31397 2.08544 7.65579C2.0818 7.94668 2.1084 8.24568 2.07478 8.53482C2.01186 9.07588 2.08544 9.63883 2.08544 10.1815C2.08544 10.4323 2.10851 10.676 2.1269 10.9243C2.14082 11.1122 2.12809 11.3058 2.12809 11.4941C2.12809 11.6846 2.08544 11.8659 2.08544 12.0557C2.08544 12.5251 2.00916 12.9823 1.98 13.4489C1.96271 13.7255 1.95749 14.0007 1.95749 14.2817C1.95749 14.3638 1.95749 14.446 1.95749 14.5281C1.95749 14.5601 1.95749 14.5921 1.95749 14.6241C1.95749 14.7043 1.95808 14.6631 2.00962 14.6193C2.52837 14.1789 3.19421 13.9761 3.82336 13.7498C4.29076 13.5816 4.7634 13.4477 5.24142 13.3186C5.4782 13.2546 5.70143 13.1217 5.93564 13.0449C6.10948 12.9879 6.28513 12.9223 6.46756 12.898C6.55218 12.8867 6.80484 12.8627 6.7199 12.8542C6.52316 12.8345 6.26708 13.0057 6.09202 13.0792C5.52801 13.3161 4.92347 13.3391 4.32448 13.4252C3.91023 13.4847 3.51564 13.5365 3.09715 13.5365C3.04976 13.5365 2.93643 13.565 2.93841 13.4939C2.9438 13.2997 3.19911 13.1675 3.33883 13.0864C4.21898 12.5753 5.18433 12.1411 6.17731 11.904C6.2894 11.8773 6.435 11.8367 6.30526 11.9775C5.95291 12.3599 5.41906 12.6095 4.96302 12.8399C4.39912 13.1248 3.81051 13.3702 3.21207 13.5721C3.13379 13.5985 2.936 13.6985 2.84008 13.6905C2.82445 13.6892 3.0361 13.4928 3.0474 13.4844C3.52448 13.1294 4.04206 12.846 4.56852 12.5722C5.09894 12.2964 5.63181 12.0305 6.2093 11.8673C6.38194 11.8185 5.98428 12.0957 5.95696 12.1125C5.42023 12.4437 4.84248 12.6708 4.25577 12.8968C3.8403 13.0569 3.40445 13.2332 2.9621 13.302C2.91511 13.3093 2.81994 13.3614 2.81994 13.3138C2.81994 13.2357 2.99237 13.1158 3.04029 13.0769C3.41701 12.7705 3.85893 12.5375 4.28065 12.3009C4.63021 12.1048 4.98368 11.915 5.35515 11.7631C5.57533 11.673 4.96981 12.0434 4.76518 12.1647C4.25511 12.4671 3.73472 12.7849 3.18719 13.0153C3.16473 13.0247 2.74432 13.2346 2.7299 13.2119C2.67997 13.1335 3.30508 12.7115 3.34949 12.68C3.81446 12.35 4.29029 12.0347 4.76518 11.7192C4.93555 11.6061 5.10875 11.4994 5.28644 11.3982C5.33239 11.372 5.38826 11.3406 5.43452 11.3129C5.56801 11.2328 5.17164 11.4797 5.04002 11.5629C4.31687 12.0196 3.59915 12.5062 2.83178 12.8873C2.67904 12.9632 2.51731 13.0188 2.36502 13.0958C2.31599 13.1206 2.29651 13.1234 2.33896 13.0698C2.47413 12.899 2.6639 12.7664 2.83297 12.6326C3.60384 12.0226 4.4373 11.516 5.27933 11.0108C5.58987 10.8245 5.89914 10.6321 6.22115 10.4658C6.3462 10.4013 6.40235 10.3761 6.52679 10.3249C6.56171 10.3105 6.59717 10.2974 6.63223 10.2834C6.65979 10.2724 6.72321 10.2733 6.71279 10.2455C6.70236 10.2177 5.87549 10.792 5.83139 10.8212C5.12243 11.2918 4.39947 11.7276 3.64092 12.1137C3.40912 12.2317 3.14789 12.4331 2.88983 12.4905C2.87761 12.4932 2.93477 12.4408 2.93485 12.4407C3.07134 12.291 3.22481 12.1606 3.37911 12.0296C4.20288 11.3304 5.12952 10.7688 5.95933 10.0773C6.09285 9.96601 5.63932 10.2151 5.48902 10.3024C4.82076 10.6904 4.16349 11.1028 3.51179 11.5178C3.21051 11.7097 2.91181 11.8983 2.62802 12.1149C2.42581 12.2692 2.99481 11.7615 3.19193 11.6008C4.29673 10.6997 5.51558 9.93542 6.67251 9.10347C6.74519 9.0512 6.7096 9.06742 6.65592 9.09873C6.51435 9.18131 6.38932 9.29455 6.26261 9.39727C5.42822 10.0737 4.5432 10.6628 3.61486 11.2051C3.42915 11.3136 3.23986 11.4027 3.03673 11.4728C2.98351 11.4912 2.85408 11.5586 2.87088 11.5048C2.89609 11.4241 2.99291 11.3312 3.04147 11.2679C3.22693 11.026 3.42648 10.7976 3.6421 10.5819C4.10698 10.1171 4.61828 9.69411 5.1348 9.28828C5.3072 9.15282 5.48505 9.02636 5.66553 8.90207C5.71174 8.87025 5.84115 8.74333 5.90602 8.74333C5.95704 8.74333 5.82793 8.80899 5.78874 8.84165C5.65896 8.94981 5.53615 9.06579 5.41557 9.18403C4.97656 9.61451 4.5267 10.0221 4.05437 10.4161C4.0163 10.4478 3.44236 10.9462 3.40043 10.9113C3.32182 10.8458 3.80874 10.2254 3.84587 10.1768C4.16059 9.76427 4.50095 9.37579 4.85521 8.99685C5.1767 8.65296 5.51513 8.27741 5.93564 8.05266C6.17306 7.92576 5.94209 8.10576 5.87048 8.1735C5.32919 8.68552 4.69873 9.13294 4.05911 9.51337C3.62587 9.77104 3.18108 10.0118 2.72279 10.2218C2.60111 10.2776 2.27705 10.4637 2.51192 10.2123C2.90295 9.79385 3.37086 9.46382 3.83521 9.13308C4.54616 8.62669 5.30872 8.23935 6.08965 7.85482C6.27846 7.76185 6.46172 7.65927 6.64645 7.55865C6.68666 7.53674 6.79493 7.51758 6.76254 7.4852C6.69604 7.4187 5.94206 8.06819 5.89181 8.10715C4.77339 8.97424 3.68412 9.85847 2.48349 10.6104C2.43437 10.6411 2.37933 10.6862 2.45506 10.6033C2.56458 10.4833 2.68161 10.3721 2.80098 10.2621C3.26427 9.83496 3.73705 9.41408 4.22852 9.01936C4.45273 8.83928 4.70157 8.69631 4.92748 8.52061C5.11709 8.37313 4.61219 8.88308 4.45598 9.06556C4.02807 9.56542 3.54555 10.0088 3.08649 10.4789C2.86781 10.7028 2.60599 10.9271 2.42662 11.1861C2.31223 11.3514 2.6802 10.8733 2.82231 10.7312C3.30329 10.2502 3.86062 9.84788 4.40148 9.43873C4.96788 9.01027 5.5437 8.59012 6.08372 8.12848C6.21611 8.01531 6.34634 7.89965 6.47941 7.78729C6.51331 7.75866 6.59635 7.68558 6.49244 7.73872C6.02349 7.97852 5.62027 8.35061 5.17034 8.62486C4.50263 9.03184 3.84505 9.45342 3.13862 9.79058C3.00782 9.85301 2.8781 9.91909 2.74293 9.97184C2.72165 9.98014 2.6483 10.0149 2.68015 9.95762C2.7477 9.83601 2.87592 9.72494 2.97039 9.6271C3.24091 9.34692 3.54817 9.1088 3.85772 8.87364C4.44784 8.42533 5.06996 8.01559 5.70818 7.63921C5.72767 7.62771 6.21853 7.33356 6.09913 7.33356C6.01013 7.33356 5.91587 7.37239 5.83494 7.40346C5.57461 7.50338 5.32661 7.63362 5.07556 7.75412C4.4946 8.03298 3.91253 8.31025 3.31987 8.56325C3.14201 8.63918 2.96609 8.72063 2.78677 8.79308C2.75959 8.80406 2.68031 8.83468 2.70147 8.81441C2.78098 8.73821 2.88512 8.67864 2.97158 8.61064C3.216 8.41842 3.46225 8.22964 3.71555 8.0491C4.24752 7.66996 4.8051 7.32101 5.35515 6.96868C5.39643 6.94223 5.59006 6.85202 5.59208 6.77913C5.59287 6.75087 5.13584 6.98961 5.11821 6.99948C4.42743 7.38632 3.72057 7.73168 3.00593 8.07161C2.80315 8.16807 2.59909 8.26387 2.40056 8.36897C2.3072 8.4184 2.27836 8.44752 2.38398 8.36897C3.40355 7.6106 4.56025 7.06131 5.64658 6.40951C6.36373 5.97922 4.22567 7.29205 3.51416 7.73161C3.44427 7.77478 3.24388 7.91798 3.30802 7.86666C3.39189 7.79957 3.48134 7.73706 3.56865 7.67475C4.27611 7.16985 5.0128 6.69485 5.76623 6.26143C6.0411 6.1033 6.32153 5.92736 6.61209 5.79822C6.62857 5.79089 6.5896 5.8136 6.58958 5.81362C6.47547 5.91572 6.36177 6.01761 6.24603 6.11808C5.72732 6.56833 5.18373 6.9813 4.64671 7.40938C3.93601 7.9759 3.18832 8.49854 2.50126 9.09399C2.22389 9.33437 1.93277 9.58515 1.717 9.88535C1.68389 9.93142 1.67822 9.9503 1.73359 9.90076C1.88349 9.76663 2.02775 9.62634 2.17073 9.48493C2.49808 9.16121 2.82223 8.83515 3.14691 8.50876C3.39076 8.26362 3.64827 7.96925 3.95841 7.80506C4.13127 7.71355 3.84435 8.11971 3.82099 8.15099C3.57189 8.48452 3.25248 8.77552 2.95973 9.0703C2.80011 9.23102 2.65258 9.40528 2.48823 9.56075C2.31539 9.72425 2.71338 9.13939 2.85666 8.94946C3.25535 8.42097 3.69068 7.92349 4.12545 7.42478C4.58026 6.90309 5.01992 6.36963 5.55654 5.92853C5.65841 5.8448 5.76081 5.76048 5.86693 5.68212C5.8901 5.66501 5.9334 5.62732 5.87878 5.67501C5.50145 6.00442 5.13977 6.34346 4.73912 6.64645C4.25901 7.00951 3.76008 7.35085 3.23458 7.64513C3.11247 7.71351 2.98919 7.77987 2.86614 7.84652C2.84363 7.85872 3.01505 7.70935 3.03555 7.69133C3.45369 7.32388 3.923 7.01144 4.37897 6.69383C4.99725 6.26317 5.60972 5.83253 6.25313 5.44044C6.36422 5.37275 6.48887 5.31014 6.5884 5.22483C6.59118 5.22245 6.62568 5.19877 6.61209 5.19877C6.55204 5.19877 6.49623 5.22519 6.44387 5.25208C6.25206 5.35058 6.07144 5.47361 5.88707 5.58498C5.31044 5.93328 4.72706 6.2715 4.11953 6.56352C3.91778 6.66049 3.7171 6.75796 3.51771 6.85969C3.50974 6.86376 3.33319 6.95284 3.31395 6.96276C3.27862 6.98096 3.18572 7.051 3.20851 7.01844C3.25156 6.95694 3.33669 6.90272 3.39095 6.85258C3.58457 6.67365 3.78001 6.49736 3.98092 6.32658C4.43181 5.94333 4.88012 5.56037 5.34686 5.1964C5.51986 5.06149 6.04037 4.66354 5.84916 4.7711C5.75742 4.8227 5.67451 4.90715 5.59327 4.9725C5.30622 5.20338 5.0215 5.43713 4.73438 5.6679C4.30353 6.01419 3.86118 6.34576 3.4336 6.6962C3.38015 6.74001 3.02666 7.07847 3.25353 6.84429C4.1082 5.96205 5.06058 5.17263 6.03752 4.4311C6.16056 4.33771 6.28099 4.24048 6.40003 4.14204C6.44292 4.10657 6.41449 4.11519 6.37634 4.13493C6.24631 4.20219 6.12797 4.28954 6.00909 4.37423C5.59241 4.6711 5.17634 4.9686 4.76281 5.26985C3.88818 5.907 3.00332 6.53336 2.15415 7.20443C1.85144 7.44365 1.55209 7.68707 1.24906 7.9259C1.16146 7.99493 0.914019 8.21675 0.983688 8.12966C1.28007 7.75918 1.64341 7.43767 1.99777 7.12506C2.74831 6.46294 3.50369 5.80551 4.24866 5.13717C4.62016 4.80388 4.9526 4.42894 5.32435 4.09702C5.36019 4.06502 5.40448 4.03229 5.36699 4.1065C5.24436 4.34927 5.08791 4.58009 4.92511 4.79716C4.46183 5.41487 3.94244 5.99883 3.40043 6.54812C3.01451 6.93921 2.65644 7.36818 2.24418 7.73161C2.22051 7.75248 2.15468 7.81164 2.16363 7.78137C2.20441 7.64333 2.30839 7.50115 2.38161 7.38095C2.81092 6.67619 3.34063 6.02679 3.87904 5.40372C4.41461 4.78394 4.93225 4.15063 5.45229 3.51771C5.68701 3.23204 6.32106 2.32495 6.1394 2.64697C6.06302 2.78238 5.94397 2.90293 5.8456 3.02133C5.65135 3.25516 5.45757 3.4901 5.2509 3.71318C4.54467 4.47547 3.77312 5.17723 2.96684 5.83139C2.72442 6.02806 2.47939 6.22141 2.23115 6.4107C2.21836 6.42045 2.08381 6.54197 2.05108 6.52561C2.0389 6.51952 2.06317 6.50105 2.07122 6.49007C2.09294 6.46045 2.15217 6.38035 2.166 6.36212C2.3735 6.08859 2.5954 5.82415 2.82705 5.57076C3.38005 4.96585 3.98771 4.41187 4.55668 3.82217C4.90168 3.4646 5.1916 3.06121 5.52693 2.69673C5.98407 2.19983 4.74558 3.80315 4.28538 4.29723C3.97858 4.62662 3.67856 4.96803 3.36015 5.28644C3.33458 5.31201 3.26155 5.37893 3.26775 5.3433C3.30166 5.14828 3.45705 4.92656 3.55207 4.75807C3.7987 4.3207 4.1012 3.9231 4.38371 3.50942C4.70258 3.0425 5.01496 2.55545 5.38595 2.1269C5.4342 2.07116 5.6013 1.92726 5.53996 1.96815C5.44046 2.03449 5.34494 2.18512 5.26985 2.27143C4.81659 2.79247 4.36488 3.30632 3.85535 3.77479C3.46436 4.13426 3.06055 4.48944 2.64224 4.8173C2.64194 4.81754 2.52604 4.91794 2.51666 4.91208C2.50086 4.9022 2.62682 4.66314 2.63394 4.64908C2.86694 4.18906 3.20621 3.77308 3.52364 3.36963C3.85819 2.9444 4.1979 2.52416 4.53061 2.09728C4.548 2.07497 4.78285 1.76368 4.71068 1.9338C4.46064 2.52319 4.03057 3.10117 3.59472 3.56155C3.21816 3.95929 2.80533 4.3256 2.41004 4.70476C2.38482 4.72895 2.32789 4.79866 2.32356 4.76399C2.31015 4.65669 2.38731 4.50412 2.42189 4.40741C2.53841 4.08151 2.7112 3.77719 2.85311 3.46203C2.94904 3.24898 3.02978 2.95684 3.2168 2.80098C3.44497 2.61085 3.81532 2.53175 4.09465 2.44795C4.28005 2.39233 4.42009 2.38398 4.61235 2.38398C5.38847 2.38398 6.1209 2.13874 6.88101 2.00962C7.44666 1.91353 8.0286 1.85503 8.59761 1.78808C8.67448 1.77904 8.74784 1.76641 8.82507 1.75373C8.93887 1.73504 9.05314 1.71921 9.16744 1.70397C9.20388 1.69911 9.0521 1.70497 9.03476 1.70634C8.76443 1.72768 8.4945 1.75752 8.22444 1.78216C7.50882 1.84746 6.78858 1.84622 6.07188 1.91484C5.77079 1.94367 5.47112 1.97443 5.17389 2.03213C5.04508 2.05713 4.89236 2.07894 4.7711 2.13638C4.73697 2.15255 4.84588 2.14941 4.88365 2.14941C5.08507 2.14941 5.28644 2.14981 5.48783 2.14467C6.74224 2.11269 8.01147 2.02681 9.25748 1.8722C9.36734 1.85856 9.49359 1.84897 9.59866 1.80822C9.61535 1.80175 9.64011 1.77854 9.60814 1.77031C9.51362 1.74601 9.38418 1.76835 9.29065 1.77505C8.87508 1.80485 8.45861 1.85297 8.04555 1.90655C7.69517 1.952 7.34374 2.00352 6.99711 2.07241C6.89472 2.09275 6.73654 2.11104 6.64763 2.17903C6.61409 2.20468 7.02471 2.23471 7.05634 2.23471C7.72252 2.23471 8.38395 2.144 9.0466 2.08544C9.74048 2.02412 10.4415 1.99974 11.1328 1.91484C11.1926 1.9075 11.4987 1.85046 11.2643 1.82007C10.7272 1.75044 10.1438 1.839 9.61288 1.91484C9.39477 1.946 9.17716 1.98583 8.96604 2.0499C8.93286 2.05997 8.84499 2.08651 8.87601 2.10202C8.91335 2.12069 8.99547 2.10703 9.03239 2.10676C9.20471 2.10551 9.37558 2.09441 9.54654 2.07241C9.98121 2.01646 10.4145 1.94647 10.8485 1.88523C11.0122 1.86212 11.1762 1.84058 11.3401 1.81889C11.4065 1.8101 11.5255 1.8174 11.5866 1.7869C11.6318 1.76428 11.4854 1.78832 11.4349 1.79164C11.2276 1.80527 11.0218 1.83403 10.8165 1.86509C10.3439 1.93659 9.8501 2.00086 9.39608 2.1577C9.28079 2.19753 9.2349 2.21755 9.39016 2.2122C9.67344 2.20243 9.95307 2.1456 10.2348 2.11742C10.5774 2.08316 10.9226 2.05649 11.2667 2.04397C11.2817 2.04343 11.3267 2.04279 11.3117 2.04279C11.2711 2.04279 11.2507 2.04239 11.2051 2.04516C11.012 2.05686 10.8236 2.11441 10.6341 2.14941C10.0997 2.2481 9.56257 2.33121 9.02528 2.41241C8.57803 2.48 8.10452 2.51316 7.67119 2.64934C7.62698 2.66324 7.61352 2.67821 7.67119 2.68133C7.79464 2.688 7.92102 2.68375 8.04437 2.68015C8.7671 2.65904 9.47758 2.5226 10.1957 2.45269C10.5585 2.41738 10.922 2.3946 11.2833 2.34607C11.4365 2.32549 11.2217 2.35008 11.1885 2.35673C10.6719 2.46006 10.1591 2.58311 9.64131 2.6837C8.82601 2.8421 8.00091 2.90978 7.17955 3.02844C6.8974 3.0692 6.61289 3.11049 6.33606 3.18008C6.29838 3.18955 6.19365 3.2249 6.23181 3.23221C6.4362 3.27134 6.68823 3.23705 6.89286 3.22747C7.34846 3.20613 7.79652 3.11763 8.24458 3.03792C9.11741 2.88263 9.98993 2.72137 10.8651 2.57945C11.0197 2.55437 11.1898 2.54524 11.3413 2.50126C11.3873 2.48793 11.3812 2.47035 11.3401 2.46927C10.8866 2.45734 10.4346 2.51192 9.98013 2.51192C9.64754 2.51192 9.31249 2.52363 8.98026 2.50718C8.65346 2.491 8.33177 2.43299 8.00646 2.4053C7.97202 2.40237 7.88362 2.3762 7.86903 2.42544C7.84387 2.51038 7.85891 2.62689 7.85363 2.7145C7.83529 3.01906 7.79116 3.31735 7.76241 3.62078C7.71728 4.09721 7.68157 4.57481 7.64394 5.05187C7.62488 5.2936 7.63052 5.55304 7.57642 5.79111C7.57141 5.81315 7.54319 5.89287 7.51955 5.8385C7.41165 5.59031 7.32941 5.33383 7.25774 5.07319C7.14017 4.64565 7.02016 4.21876 6.88575 3.79611C6.83235 3.62819 6.77679 3.45802 6.70094 3.29855C6.64205 3.17472 6.65912 3.45931 6.65829 3.47269C6.61676 4.14319 6.49659 4.80519 6.34791 5.4594C6.26757 5.81289 6.18465 6.16571 6.06714 6.50902C6.04422 6.57597 5.98482 6.84129 5.89062 6.87627C5.84693 6.8925 5.77387 6.08602 5.76978 6.00672C5.74832 5.59002 5.68667 5.179 5.64776 4.76399C5.62501 4.52129 5.57216 4.19851 5.63829 3.95604C5.65579 3.89186 5.728 3.87199 5.75794 3.93827C5.81982 4.07529 5.84192 4.24059 5.8693 4.38608C5.93046 4.71107 5.96883 5.03692 5.98777 5.36699C6.01189 5.78741 5.99813 6.20885 6.02923 6.62868C6.04762 6.87689 6.03879 6.13089 6.05174 5.88233C6.08769 5.19204 6.13329 4.49915 6.13703 3.80796C6.13831 3.57261 6.11362 2.8677 6.13703 3.10189C6.1445 3.17657 6.16342 3.25123 6.17731 3.32461C6.25354 3.72709 6.30907 4.12892 6.35028 4.53654C6.47079 5.72879 6.55963 6.92312 6.69265 8.11426C6.74723 8.60298 6.79391 9.09341 6.86798 9.57971C6.87566 9.6301 6.89229 9.77917 6.90115 9.72898C6.93458 9.53953 6.90405 9.30411 6.90471 9.11531C6.90849 8.02508 6.8784 6.90032 7.07767 5.82428C7.09239 5.74479 7.13675 5.50891 7.13927 5.58971C7.15538 6.10513 7.148 6.6221 7.12032 7.1369C7.05281 8.39263 6.95812 9.67672 6.7199 10.9137C6.68834 11.0775 6.66727 11.0523 6.67725 10.9113C6.70799 10.477 6.82237 10.0508 6.90471 9.62473C6.96799 9.29727 7.01264 8.9673 7.07056 8.63907C7.09767 8.48543 7.09897 8.62957 7.10136 8.69357C7.14073 9.74763 7.15967 10.8215 7.07293 11.8732C7.04991 12.1524 7.02923 12.4374 6.96986 12.712C6.96094 12.7533 6.94611 12.8737 6.88812 12.7937C6.75962 12.6165 6.69611 12.3735 6.61091 12.1753C6.48992 11.8939 6.36226 11.6124 6.19982 11.352C6.19738 11.3481 6.03041 11.0797 6.03041 11.2134C6.03041 11.3399 6.03648 11.463 6.05174 11.5889C6.07327 11.7665 6.0584 11.9486 6.08965 12.1244C6.11571 12.271 6.09439 11.8267 6.09439 11.6778C6.09439 11.6162 6.05601 11.4046 6.10742 11.3532C6.18033 11.2803 6.48831 11.6336 6.52324 11.6718C7.18138 12.3918 7.8509 13.1175 8.74214 13.5472C8.89534 13.6211 9.36013 13.8294 9.21246 13.745C9.14572 13.7069 9.08848 13.6357 9.03002 13.5875C8.86254 13.4494 8.67153 13.3375 8.48033 13.2356C8.18182 13.0766 7.83997 12.9619 7.50652 12.9063C7.47027 12.9002 7.37053 12.8648 7.39753 12.8897C7.49902 12.9834 7.67266 13.036 7.7944 13.0899C8.57563 13.4358 9.40724 13.6509 10.2526 13.7664C10.2772 13.7697 10.6267 13.7928 10.6175 13.7782C10.5319 13.6422 10.2971 13.5686 10.1578 13.5152C10.0102 13.4586 9.59586 13.2541 9.70765 13.3659C9.74714 13.4054 9.81813 13.4322 9.8664 13.456C10.0576 13.5501 10.2569 13.6305 10.4528 13.7142C11.004 13.9499 11.5651 14.1636 12.1208 14.3883C12.1819 14.413 12.355 14.5018 12.3057 14.4582C12.2724 14.4289 12.2056 14.3256 12.1599 14.3232C12.1449 14.3224 12.2942 14.6802 12.2748 14.6963C12.2367 14.7281 11.9153 14.5266 11.8732 14.5056C11.663 14.4005 11.453 14.3081 11.2383 14.2142C11.2068 14.2004 11.0757 14.1145 11.1861 14.1834C11.4404 14.3419 11.6722 14.5358 11.9254 14.6963C12.0076 14.7485 12.0916 14.8055 12.1789 14.8492C12.2426 14.881 12.0625 14.7669 12.0012 14.7307C11.4188 14.3871 10.7864 14.0981 10.1507 13.8682C9.98377 13.8079 9.81128 13.7602 9.64605 13.6953C9.60021 13.6773 9.74248 13.7173 9.78821 13.7356C10.2654 13.9264 10.7239 14.1532 11.2098 14.3243C11.3577 14.3764 11.5128 14.4436 11.6707 14.4594C11.806 14.4729 11.6332 14.352 11.6102 14.3326C11.0676 13.8753 10.3521 13.5899 9.7195 13.2877C9.26054 13.0685 8.79962 12.8715 8.31803 12.7073C7.98333 12.5931 7.63773 12.4687 7.28617 12.4158C7.15731 12.3964 7.18286 12.4346 7.2684 12.4786C7.62462 12.6618 8.01269 12.7841 8.39029 12.9134C9.08024 13.1497 9.77932 13.4445 10.4966 13.591C10.5782 13.6077 10.4725 13.5244 10.4611 13.5152C10.2007 13.3042 9.86462 13.1654 9.56905 13.0141C8.80136 12.6212 8.04416 12.1865 7.2376 11.8768C7.19276 11.8596 7.06058 11.8091 7.10847 11.8128C7.34708 11.8312 7.60276 11.9464 7.82402 12.0225C8.8276 12.3679 9.81326 12.7679 10.8236 13.0935C10.8333 13.0966 11.0956 13.199 10.9824 13.0816C10.8025 12.8951 10.5641 12.7749 10.3391 12.6539C9.55714 12.2335 8.77737 11.8009 7.98632 11.3982C7.88197 11.3451 7.57072 11.1825 7.67238 11.2406C7.84134 11.3372 7.99655 11.4597 8.1652 11.5581C8.91857 11.9979 9.72964 12.3654 10.5464 12.6693C10.8032 12.7649 11.065 12.8443 11.3307 12.911C11.3832 12.9242 11.5143 12.9537 11.493 12.9039C11.4563 12.8183 11.3192 12.7386 11.2537 12.6847C11.0507 12.518 10.8435 12.3617 10.621 12.2215C10.4515 12.1147 10.2779 12.0136 10.0939 11.9337C9.85061 11.828 10.146 12.0363 10.1934 12.0723C10.6766 12.4389 11.2281 12.7136 11.6955 13.1006C11.7813 13.1716 11.8947 13.262 11.9325 13.373C11.933 13.3746 11.9449 13.4337 11.9266 13.4264C11.8435 13.3931 11.9572 12.8115 11.9585 12.7594C11.9596 12.7172 11.9532 12.4755 11.9633 12.6457C11.9886 13.0723 11.9946 13.5055 11.9479 13.931C11.946 13.9482 11.8946 14.2479 11.8946 14.1004C11.8946 13.8327 11.8946 13.565 11.8946 13.2972C11.8946 13.0019 11.8912 12.7064 11.8946 12.4111C11.8967 12.2217 11.9828 12.0632 12.0308 11.8839C12.1026 11.6158 12.0865 11.318 12.0865 11.0428C12.0865 10.7075 12.1448 10.3779 12.1718 10.0441C12.2442 9.14713 12.219 8.26467 12.1007 7.37384C12.0555 7.03346 12.0524 6.68865 11.9988 6.34909C11.9296 5.91071 11.7992 5.48463 11.75 5.04239C11.6129 3.80771 11.6813 2.54335 11.6813 1.30237C11.6813 1.13131 11.6813 1.18526 11.6813 1.33909C11.6813 1.90794 11.6518 2.46985 11.6268 3.03792C11.569 4.35443 11.6074 5.67277 11.5948 6.99C11.5779 8.76784 11.3987 10.5795 11.679 12.3471C11.7637 12.8819 11.8394 13.3994 11.8567 13.9417C11.8714 14.4047 11.8732 14.8669 11.8732 15.3301C11.8732 15.4041 11.891 15.6199 11.8626 15.5517C11.8266 15.4654 11.8444 15.3114 11.8413 15.2247C11.8081 14.2956 11.8485 13.3679 11.9254 12.4419C12.0446 11.006 12.2224 9.57671 12.3708 8.14388C12.4193 7.67576 12.4754 6.2643 12.4478 6.73411C12.3976 7.58755 12.3501 8.4321 12.231 9.27998C12.0724 10.4096 11.7909 11.5127 11.6102 12.6374C11.6081 12.6509 11.553 13.009 11.5522 12.9987C11.5382 12.8095 11.5216 12.6205 11.5084 12.4312C11.4701 11.8847 11.4446 11.3367 11.3757 10.7928C11.2743 9.99349 11.1265 9.19828 10.9895 8.40451C10.8879 7.8165 10.7421 7.21508 10.7217 6.61564C10.6946 5.81382 10.8595 8.21591 10.8663 9.01817C10.8734 9.85788 10.8284 10.6963 10.8284 11.5356C10.8284 12.2405 10.8061 10.1258 10.8118 9.42096C10.8247 7.81883 10.8181 6.21269 10.8592 4.61117C10.8664 4.3282 10.8733 4.03962 10.9089 3.7582C10.9358 3.54576 10.9008 4.1865 10.8888 4.4003C10.8109 5.78673 10.4467 7.13998 10.2396 8.50994C10.1948 8.80645 10.1514 9.10416 10.127 9.40319C10.1238 9.44263 10.1247 9.44358 10.1247 9.40082C10.1247 9.24723 10.1259 9.09352 10.1294 8.93998C10.1638 7.44425 10.3626 5.96265 10.4611 4.47138C10.4914 4.0123 10.5077 3.55213 10.5251 3.09241C10.5381 2.74853 10.5305 3.21896 10.531 3.27722C10.5452 4.87652 10.3345 6.45151 10.2254 8.04437C10.186 8.61938 10.1504 9.19563 10.1282 9.77163C10.1224 9.92223 10.1247 10.065 10.1247 9.82138C10.1247 8.27443 10.1109 6.7264 10.1507 5.17982C10.1681 4.50597 10.1797 3.8146 10.3024 3.14928C10.3175 3.06736 10.3118 2.92498 10.3948 2.91708C10.4635 2.91054 10.4861 3.02478 10.5085 3.09004C10.6693 3.5588 10.7124 4.09062 10.7525 4.58037C10.7836 4.95866 10.7577 5.34076 10.7904 5.71766C10.8569 6.48232 10.8389 4.18327 10.8521 3.41583C10.8548 3.25793 10.8459 3.07558 10.9018 2.923C10.9072 2.90842 10.9218 2.8565 10.9373 2.89339C10.9671 2.96394 11.0072 3.1946 11.0463 3.03318C11.0484 3.0246 11.0933 2.8451 11.1008 2.85074C11.1266 2.87003 11.1445 3.00693 11.1482 3.02607C11.1922 3.25402 11.2335 3.50108 11.2335 3.73451C11.2335 3.82504 11.1126 3.5559 11.0783 3.51771C10.833 3.24411 10.3643 3.38918 10.0654 3.47388C10.0382 3.4816 9.66594 3.61889 9.84745 3.62078C9.97384 3.6221 10.1009 3.62279 10.2265 3.60656C10.3459 3.59114 10.585 3.57746 10.6779 3.48454C10.7428 3.41969 10.4959 3.45287 10.4042 3.45611C9.806 3.47722 9.20847 3.54133 8.61064 3.57339C7.93932 3.6094 8.17026 3.593 7.60485 3.61841C7.56771 3.62008 7.37599 3.62382 7.2992 3.6421C7.29269 3.64366 7.57907 3.64914 7.64158 3.63973C8.23254 3.55077 8.82103 3.43301 9.40674 3.31513C9.58121 3.28002 9.32356 3.29318 9.3096 3.29381C8.88995 3.31257 8.48163 3.40198 8.0728 3.49283C7.79671 3.55419 7.50271 3.60262 7.2376 3.70608C7.06954 3.77166 7.14579 3.81837 7.2921 3.84113C7.74583 3.91171 8.22937 3.87417 8.68528 3.86245C9.28521 3.84704 9.88976 3.82618 10.4848 3.74162C11.1738 3.64371 9.09532 3.85817 8.41162 3.98803C8.01838 4.06272 7.55879 4.14313 7.21983 4.3766C6.95985 4.55568 7.45393 4.64607 7.5468 4.65974C8.18302 4.75338 8.84726 4.72232 9.4873 4.70357C9.99112 4.68882 10.5039 4.67565 11.0049 4.61354C11.1678 4.59334 11.1129 4.56477 10.9966 4.5626C10.5226 4.55374 10.0432 4.58608 9.57023 4.61117C9.24652 4.62834 8.91925 4.63898 8.59643 4.6704C8.58764 4.67126 8.56403 4.68074 8.57273 4.68225C8.59482 4.68609 8.6704 4.68743 8.68646 4.68699C8.95247 4.6797 9.21975 4.63195 9.48256 4.59458C9.73453 4.55876 9.99644 4.5309 10.2431 4.46545C10.3153 4.4463 10.2792 4.42729 10.2242 4.42162C9.99805 4.39834 9.76618 4.41832 9.5418 4.44768C9.20004 4.49242 8.85289 4.53494 8.51468 4.60169C8.49099 4.60637 8.09499 4.72193 8.19364 4.73438C8.74559 4.80404 9.33817 4.72183 9.89009 4.68699C9.96603 4.6822 10.1911 4.65401 10.1152 4.64908C9.85853 4.63241 9.57277 4.71306 9.32145 4.75452C8.9658 4.81318 8.60485 4.86833 8.25524 4.9571C8.08367 5.00065 7.75852 5.06774 7.63447 5.2118C7.54581 5.31475 7.89666 5.29829 8.03252 5.29947C8.79564 5.3061 9.56342 5.25481 10.3237 5.19403C10.4915 5.18061 10.8822 5.14579 11.0653 5.12769C11.15 5.11932 11.2381 5.12381 11.3188 5.09689C11.4875 5.04066 10.9629 5.10124 10.7857 5.11584C10.194 5.1646 9.60112 5.22774 9.01343 5.3125C8.75939 5.34914 8.35765 5.41482 8.09886 5.46888C7.93398 5.50332 7.73884 5.53631 7.60011 5.64302C7.36581 5.82326 8.11389 5.75324 8.14743 5.75083C8.47743 5.72714 8.80681 5.69655 9.13545 5.65843C9.24651 5.64554 9.34515 5.63352 9.45413 5.61815C9.47798 5.61478 9.54526 5.61848 9.52521 5.60511C9.47476 5.57148 9.21174 5.65415 9.1781 5.66079C8.86765 5.72209 8.55562 5.76756 8.24339 5.81836C8.02389 5.85406 7.77459 5.87866 7.57405 5.98421C7.40067 6.07546 7.8163 6.11426 7.85008 6.11808C8.24936 6.1632 8.66275 6.13752 9.06319 6.1323C9.54508 6.12601 10.0267 6.1101 10.5085 6.09913C10.6353 6.09624 10.6717 6.09569 10.781 6.09439C10.796 6.09421 10.751 6.094 10.736 6.09439C10.2834 6.10614 9.83457 6.18827 9.38779 6.25432C8.96328 6.31707 8.53436 6.36854 8.11782 6.47467C8.1139 6.47567 7.82875 6.53058 7.82875 6.58366C7.82875 6.67019 8.86928 6.52312 8.93524 6.51376C9.07794 6.49351 9.22032 6.473 9.36173 6.44505C9.47159 6.42333 9.29832 6.43554 9.29539 6.43557C8.67139 6.44323 8.03785 6.56106 7.42123 6.65C7.24741 6.67507 6.9869 6.67979 6.83363 6.78624C6.76369 6.83481 6.83655 6.85676 6.88338 6.85969C7.52406 6.89973 8.17495 6.82877 8.81441 6.79808C9.04422 6.78706 9.27468 6.78122 9.50389 6.76018C9.58716 6.75253 9.49974 6.75718 9.4802 6.76018C9.25647 6.79442 9.03584 6.86086 8.81441 6.90708C8.34594 7.00485 7.87553 7.09454 7.41767 7.23642C7.35518 7.25578 7.18595 7.32962 7.25063 7.33948C7.58697 7.39079 7.96855 7.32997 8.30263 7.30394C9.07942 7.24341 11.4075 7.04021 10.6293 7.08004C10.1442 7.10487 9.6634 7.1918 9.18403 7.26485C8.41667 7.38179 7.64196 7.47887 6.88338 7.64631C6.83447 7.65711 6.52689 7.72949 6.44268 7.77189C6.41267 7.787 6.50149 7.8123 6.53509 7.81217C6.97726 7.81048 7.42378 7.71076 7.85956 7.64868C8.35295 7.5784 9.83454 7.37766 9.3404 7.44255C9.06831 7.47828 8.7975 7.55511 8.53245 7.62262C8.0488 7.74581 7.50167 7.85164 7.06108 8.09768C6.90132 8.18689 7.18811 8.19919 7.21628 8.20074C7.88522 8.2377 8.56689 8.16132 9.23141 8.09649C9.80337 8.04069 11.514 7.84364 10.9397 7.86429C10.6342 7.87529 10.3282 7.9496 10.0275 7.99698C9.54686 8.07272 9.0641 8.14686 8.57984 8.196C8.24986 8.22949 7.26316 8.31155 7.59419 8.33224C7.9508 8.35453 8.32356 8.27564 8.67343 8.21733C8.84631 8.18852 9.02024 8.16868 9.1935 8.14269C9.38626 8.11378 9.25411 8.12043 9.15559 8.13914C8.73997 8.21809 8.30047 8.30508 7.90694 8.46137C7.85318 8.48272 7.63264 8.58932 7.81217 8.58932C8.10321 8.58932 8.41101 8.5582 8.69949 8.60116C8.86949 8.62648 8.67287 8.68804 8.63434 8.75043C8.61757 8.77758 8.96604 8.78234 9.00869 8.78597C9.01102 8.78617 9.15479 8.79434 9.10347 8.81204C8.77506 8.92528 8.39665 8.95862 8.0574 9.01343C7.66174 9.07735 7.26765 9.12632 6.86798 9.15322C6.8131 9.15692 6.65269 9.15723 6.7045 9.17573C6.79232 9.2071 6.92638 9.18117 7.01488 9.17336C7.27189 9.15069 7.52729 9.1041 7.78255 9.06793C8.11029 9.02149 8.43878 8.98077 8.76465 8.92221C8.87563 8.90227 9.01085 8.89641 9.11768 8.85705C9.45765 8.73181 8.41075 9.01751 8.05384 9.07977C7.6784 9.14527 6.5568 9.356 6.92366 9.25274C7.76791 9.0151 8.62699 8.85565 9.48849 8.69238C9.92414 8.60982 11.2382 8.40224 10.7999 8.46967C10.5526 8.50772 10.3082 8.56762 10.0619 8.61183C9.53044 8.70721 8.99471 8.77593 8.46137 8.85942C8.17215 8.9047 7.30895 9.05251 7.6013 9.03713C8.24312 9.00335 8.8804 8.89783 9.52403 8.8689C9.70889 8.86059 9.47841 8.88841 9.46361 8.89141C9.17259 8.95035 8.8845 9.02613 8.59524 9.09281C8.13797 9.19821 7.67754 9.28993 7.22101 9.39845C7.01477 9.44748 6.69549 9.48426 6.51613 9.61999C6.4317 9.68388 6.72777 9.63167 6.83363 9.62946C7.26419 9.62049 7.69456 9.60708 8.12492 9.59155C8.70731 9.57055 10.4527 9.48493 9.86995 9.48493C9.70928 9.48493 9.55432 9.51315 9.39608 9.54061C8.80515 9.64317 8.21138 9.7432 7.62736 9.88062C7.47772 9.91583 7.0454 10.014 7.19614 10.0441C7.39725 10.0843 7.66473 9.99062 7.85956 9.94933C8.18445 9.88048 8.50927 9.81142 8.83573 9.7503C8.98976 9.72146 9.28047 9.72298 9.42333 9.63894C9.49183 9.59865 9.26649 9.66503 9.18876 9.68159C8.67365 9.79133 8.15282 9.87008 7.63447 9.96236C7.31028 10.0201 6.9831 10.0822 6.66659 10.1744C6.58921 10.197 6.53968 10.2126 6.4723 10.2491C6.45436 10.2588 6.41286 10.2761 6.42728 10.2905C6.48306 10.3463 7.065 10.2673 7.07293 10.2668C7.99575 10.2055 8.91613 10.1026 9.83797 10.0275C10.3675 9.98436 10.8961 9.93223 11.4254 9.88772C11.5712 9.87547 11.5466 9.88019 11.4183 9.90194C11.2029 9.93849 10.9869 9.97207 10.7715 10.0086C9.33989 10.251 7.8786 10.4392 6.47704 10.8236C6.45738 10.829 6.19091 10.8988 6.12045 10.9468C6.09549 10.9638 6.17213 10.983 6.20219 10.9859C6.47634 11.0127 6.75753 10.9898 7.03147 10.9753C7.63599 10.9432 8.24018 10.9018 8.84402 10.8592C9.18355 10.8352 9.54574 10.8096 9.88654 10.7786C10.055 10.7633 10.2508 10.7548 10.4185 10.7099C10.5192 10.6829 10.2096 10.7103 10.1057 10.7194C9.68569 10.756 9.26658 10.8038 8.84995 10.8686C8.4815 10.926 8.10054 10.9744 7.74109 11.0771C7.70224 11.0882 7.30133 11.2196 7.53259 11.262C7.76816 11.3051 8.03712 11.2762 8.27301 11.2762C8.73537 11.2762 9.19792 11.2801 9.66027 11.275C9.79977 11.2734 9.94345 11.2745 10.0808 11.2454C10.1878 11.2227 9.86187 11.2412 9.75267 11.2477C9.37856 11.27 9.00045 11.2878 8.6296 11.3449C8.59144 11.3507 8.43822 11.3797 8.39029 11.3946C8.34268 11.4095 8.35081 11.4193 8.3974 11.4254C8.66159 11.4601 8.94142 11.4333 9.20535 11.416C9.78546 11.3779 10.3662 11.3363 10.9456 11.2892C11.034 11.282 11.217 11.2628 11.0155 11.2454C10.7649 11.2237 10.516 11.2649 10.2704 11.3117C10.2464 11.3163 9.56212 11.4386 9.65553 11.5321" stroke="black" stroke-linecap="round" stroke-linejoin="round"/>
</svg>
