<svg width="50" height="50" viewBox="0 0 50 50" fill="none" xmlns="http://www.w3.org/2000/svg">
<path d="M13.9812 28.125L6.25012 34.375V9.375C6.25012 8.9606 6.41474 8.56317 6.70777 8.27015C7.00079 7.97712 7.39822 7.8125 7.81262 7.8125H32.8126C33.227 7.8125 33.6245 7.97712 33.9175 8.27015C34.2105 8.56317 34.3751 8.9606 34.3751 9.375V26.5625C34.3751 26.9769 34.2105 27.3743 33.9175 27.6674C33.6245 27.9604 33.227 28.125 32.8126 28.125H13.9812Z" stroke="black" stroke-width="2" stroke-linecap="round" stroke-linejoin="round"/>
<path d="M15.6251 28.125V35.9375C15.6251 36.3519 15.7897 36.7493 16.0828 37.0424C16.3758 37.3354 16.7732 37.5 17.1876 37.5H36.0191L43.7501 43.75V18.75C43.7501 18.3356 43.5855 17.9382 43.2925 17.6451C42.9995 17.3521 42.602 17.1875 42.1876 17.1875H34.3751" stroke="black" stroke-width="2" stroke-linecap="round" stroke-linejoin="round"/>
</svg>
