<svg width="37" height="38" viewBox="0 0 37 38" fill="none" xmlns="http://www.w3.org/2000/svg">
<path d="M4.11111 38H0V36C0.0090622 28.2717 6.44588 22.0088 14.3889 22H22.6111C30.5541 22.0088 36.9909 28.2717 37 36V38H32.8889V36C32.8821 30.4799 28.2846 26.0066 22.6111 26H14.3889C8.71545 26.0066 4.11791 30.4799 4.11111 36V38ZM18.5 20C12.8237 20 8.22222 15.5228 8.22222 10C8.22222 4.47715 12.8237 0 18.5 0C24.1763 0 28.7778 4.47715 28.7778 10C28.771 15.5201 24.1734 19.9934 18.5 20ZM18.5 4C15.0942 4 12.3333 6.68629 12.3333 10C12.3333 13.3137 15.0942 16 18.5 16C21.9058 16 24.6667 13.3137 24.6667 10C24.6667 6.68629 21.9058 4 18.5 4Z" fill="black"/>
</svg>
